# xmcd
#
# Track frame offsets:
# 150
# 22293
# 40505
# 63326
# 82653
# 107496
# 121568
# 141323
# 162516
# 180751
# 194651
# 210243
# 234518
# 250093
#
# Disc length: 3606 seconds
#
#
# Revision: 5
# Processed by: cddbd v1.5.1PL2 Copyright (c) Steve Scherf et al.
# Submitted via: FreeRIP 2.945 
#
DISCID=ab0e140e
DTITLE=Daniel - Momentos Mágicos (ao Vivo)
DYEAR=1900
DGENRE=
TTITLE0=Adoro Amar Você
TTITLE1=Vou Levando a Vida
TTITLE2=Declaração de Amor
TTITLE3=Pra Falar Verdade
TTITLE4=Estou Apaixonado
TTITLE5=Dengo
TTITLE6=A Jiripoca vai Piar
TTITLE7=Quando o Coração se Apaixona
TTITLE8=Um Beijo pra me Enlouquecer
TTITLE9=Pout Pourri
TTITLE10=A Loira do Carro Branco
TTITLE11=Te Amo cada vez mais
TTITLE12=Eu me Amarrei
TTITLE13=Só seu Amor não vai Embora
EXTD=2002
EXTT0=
EXTT1=
EXTT2=
EXTT3=
EXTT4=
EXTT5=
EXTT6=
EXTT7=
EXTT8=
EXTT9=
EXTT10=
EXTT11=
EXTT12=
EXTT13=
PLAYORDER=
